<svg width="61" height="61" viewBox="0 0 61 61" fill="none" xmlns="http://www.w3.org/2000/svg">
<circle cx="30.5" cy="30.5" r="30" fill="#EFEFEF" stroke="#484848"/>
<path d="M29.34 40.01C29.14 40.01 28.97 39.94 28.83 39.8C28.69 39.66 28.62 39.49 28.62 39.29V33.44H22.86C22.66 33.44 22.49 33.37 22.35 33.23C22.21 33.09 22.14 32.92 22.14 32.72V31.13C22.14 30.91 22.21 30.74 22.35 30.62C22.49 30.48 22.66 30.41 22.86 30.41H28.62V24.71C28.62 24.51 28.69 24.34 28.83 24.2C28.97 24.06 29.14 23.99 29.34 23.99H31.08C31.3 23.99 31.47 24.06 31.59 24.2C31.73 24.34 31.8 24.51 31.8 24.71V30.41H37.56C37.76 30.41 37.93 30.48 38.07 30.62C38.21 30.74 38.28 30.91 38.28 31.13V32.72C38.28 32.92 38.21 33.09 38.07 33.23C37.93 33.37 37.76 33.44 37.56 33.44H31.8V39.29C31.8 39.49 31.73 39.66 31.59 39.8C31.47 39.94 31.3 40.01 31.08 40.01H29.34Z" fill="#484848"/>
</svg>
