<svg width="797" height="114" viewBox="0 0 797 114" fill="none" xmlns="http://www.w3.org/2000/svg">
<path d="M129.837 90.96C126.573 90.96 123.469 90.576 120.525 89.808C117.645 88.976 115.053 87.728 112.749 86.064C110.509 84.336 108.717 82.192 107.373 79.632C106.029 77.072 105.293 74.064 105.165 70.608C105.165 70.032 105.357 69.552 105.741 69.168C106.125 68.72 106.637 68.496 107.277 68.496H112.461C113.165 68.496 113.709 68.72 114.093 69.168C114.541 69.552 114.829 70.064 114.957 70.704C115.213 73.584 116.045 75.92 117.453 77.712C118.861 79.44 120.653 80.72 122.829 81.552C125.005 82.384 127.405 82.8 130.029 82.8C134.893 82.8 138.605 81.2 141.165 78C143.725 74.8 145.005 70.544 145.005 65.232V31.152H110.925C110.285 31.152 109.741 30.96 109.293 30.576C108.909 30.128 108.717 29.584 108.717 28.944V25.008C108.717 24.368 108.909 23.856 109.293 23.472C109.741 23.024 110.285 22.8 110.925 22.8H152.301C153.005 22.8 153.549 23.024 153.933 23.472C154.381 23.856 154.605 24.4 154.605 25.104V65.424C154.605 70.608 153.613 75.12 151.629 78.96C149.645 82.8 146.829 85.776 143.181 87.888C139.533 89.936 135.085 90.96 129.837 90.96ZM190.873 90.96C186.009 90.96 181.945 90.032 178.681 88.176C175.417 86.32 172.921 83.76 171.193 80.496C169.465 77.168 168.505 73.392 168.313 69.168C168.249 68.08 168.217 66.704 168.217 65.04C168.217 63.312 168.249 61.936 168.313 60.912C168.505 56.624 169.465 52.848 171.193 49.584C172.985 46.32 175.513 43.76 178.777 41.904C182.041 40.048 186.073 39.12 190.873 39.12C195.673 39.12 199.705 40.048 202.969 41.904C206.233 43.76 208.729 46.32 210.457 49.584C212.249 52.848 213.241 56.624 213.433 60.912C213.497 61.936 213.529 63.312 213.529 65.04C213.529 66.704 213.497 68.08 213.433 69.168C213.241 73.392 212.281 77.168 210.553 80.496C208.825 83.76 206.329 86.32 203.065 88.176C199.801 90.032 195.737 90.96 190.873 90.96ZM190.873 83.568C194.841 83.568 198.009 82.32 200.377 79.824C202.745 77.264 204.025 73.552 204.217 68.688C204.281 67.728 204.313 66.512 204.313 65.04C204.313 63.568 204.281 62.352 204.217 61.392C204.025 56.528 202.745 52.848 200.377 50.352C198.009 47.792 194.841 46.512 190.873 46.512C186.905 46.512 183.705 47.792 181.273 50.352C178.905 52.848 177.657 56.528 177.529 61.392C177.465 62.352 177.433 63.568 177.433 65.04C177.433 66.512 177.465 67.728 177.529 68.688C177.657 73.552 178.905 77.264 181.273 79.824C183.705 82.32 186.905 83.568 190.873 83.568ZM245.134 90.96C241.038 90.96 237.55 90.064 234.67 88.272C231.854 86.416 229.71 83.856 228.238 80.592C226.766 77.328 226.03 73.584 226.03 69.36V42.288C226.03 41.648 226.222 41.136 226.606 40.752C227.054 40.304 227.598 40.08 228.238 40.08H233.038C233.678 40.08 234.19 40.304 234.574 40.752C235.022 41.136 235.246 41.648 235.246 42.288V68.88C235.246 78.416 239.406 83.184 247.726 83.184C251.694 83.184 254.862 81.936 257.23 79.44C259.662 76.88 260.878 73.36 260.878 68.88V42.288C260.878 41.648 261.07 41.136 261.454 40.752C261.902 40.304 262.446 40.08 263.086 40.08H267.79C268.494 40.08 269.038 40.304 269.422 40.752C269.806 41.136 269.998 41.648 269.998 42.288V87.792C269.998 88.432 269.806 88.976 269.422 89.424C269.038 89.808 268.494 90 267.79 90H263.374C262.734 90 262.19 89.808 261.742 89.424C261.358 88.976 261.166 88.432 261.166 87.792V83.568C259.438 85.808 257.326 87.6 254.83 88.944C252.398 90.288 249.166 90.96 245.134 90.96ZM287.428 90C286.788 90 286.244 89.808 285.796 89.424C285.412 88.976 285.22 88.432 285.22 87.792V42.384C285.22 41.744 285.412 41.2 285.796 40.752C286.244 40.304 286.788 40.08 287.428 40.08H291.844C292.484 40.08 293.028 40.304 293.476 40.752C293.924 41.2 294.148 41.744 294.148 42.384V46.608C295.428 44.432 297.188 42.8 299.428 41.712C301.668 40.624 304.356 40.08 307.492 40.08H311.332C311.972 40.08 312.484 40.304 312.868 40.752C313.252 41.136 313.444 41.648 313.444 42.288V46.224C313.444 46.864 313.252 47.376 312.868 47.76C312.484 48.144 311.972 48.336 311.332 48.336H305.572C302.116 48.336 299.396 49.36 297.412 51.408C295.428 53.392 294.436 56.112 294.436 59.568V87.792C294.436 88.432 294.212 88.976 293.764 89.424C293.316 89.808 292.772 90 292.132 90H287.428ZM324.856 90C324.216 90 323.672 89.808 323.224 89.424C322.84 88.976 322.648 88.432 322.648 87.792V42.288C322.648 41.648 322.84 41.136 323.224 40.752C323.672 40.304 324.216 40.08 324.856 40.08H329.368C330.008 40.08 330.52 40.304 330.904 40.752C331.352 41.136 331.576 41.648 331.576 42.288V46.512C333.24 44.336 335.32 42.576 337.816 41.232C340.376 39.824 343.64 39.12 347.608 39.12C351.768 39.12 355.288 40.048 358.168 41.904C361.112 43.696 363.32 46.224 364.792 49.488C366.264 52.688 367 56.432 367 60.72V87.792C367 88.432 366.808 88.976 366.424 89.424C366.04 89.808 365.528 90 364.888 90H360.088C359.448 90 358.904 89.808 358.456 89.424C358.072 88.976 357.88 88.432 357.88 87.792V61.2C357.88 56.72 356.792 53.232 354.616 50.736C352.44 48.176 349.24 46.896 345.016 46.896C341.048 46.896 337.848 48.176 335.416 50.736C333.048 53.232 331.864 56.72 331.864 61.2V87.792C331.864 88.432 331.64 88.976 331.192 89.424C330.808 89.808 330.296 90 329.656 90H324.856ZM401.699 90.96C395.107 90.96 389.859 88.944 385.955 84.912C382.051 80.816 379.907 75.248 379.523 68.208C379.459 67.376 379.427 66.32 379.427 65.04C379.427 63.696 379.459 62.608 379.523 61.776C379.779 57.232 380.835 53.264 382.691 49.872C384.547 46.416 387.075 43.76 390.275 41.904C393.539 40.048 397.347 39.12 401.699 39.12C406.563 39.12 410.627 40.144 413.891 42.192C417.219 44.24 419.747 47.152 421.475 50.928C423.203 54.704 424.067 59.12 424.067 64.176V65.808C424.067 66.512 423.843 67.056 423.395 67.44C423.011 67.824 422.499 68.016 421.859 68.016H388.643C388.643 68.08 388.643 68.208 388.643 68.4C388.643 68.592 388.643 68.752 388.643 68.88C388.771 71.504 389.347 73.968 390.371 76.272C391.395 78.512 392.867 80.336 394.787 81.744C396.707 83.152 399.011 83.856 401.699 83.856C404.003 83.856 405.923 83.504 407.459 82.8C408.995 82.096 410.243 81.328 411.203 80.496C412.163 79.6 412.803 78.928 413.123 78.48C413.699 77.648 414.147 77.168 414.467 77.04C414.787 76.848 415.299 76.752 416.003 76.752H420.611C421.251 76.752 421.763 76.944 422.147 77.328C422.595 77.648 422.787 78.128 422.723 78.768C422.659 79.728 422.147 80.912 421.187 82.32C420.227 83.664 418.851 85.008 417.059 86.352C415.267 87.696 413.091 88.816 410.531 89.712C407.971 90.544 405.027 90.96 401.699 90.96ZM388.643 61.392H414.947V61.104C414.947 58.224 414.403 55.664 413.315 53.424C412.291 51.184 410.787 49.424 408.803 48.144C406.819 46.8 404.451 46.128 401.699 46.128C398.947 46.128 396.579 46.8 394.595 48.144C392.675 49.424 391.203 51.184 390.179 53.424C389.155 55.664 388.643 58.224 388.643 61.104V61.392ZM443.367 108.24C442.855 108.24 442.407 108.048 442.023 107.664C441.639 107.28 441.447 106.832 441.447 106.32C441.447 106.064 441.479 105.808 441.543 105.552C441.607 105.296 441.735 104.976 441.927 104.592L449.319 87.024L430.983 43.728C430.663 42.96 430.503 42.416 430.503 42.096C430.503 41.52 430.695 41.04 431.079 40.656C431.463 40.272 431.943 40.08 432.519 40.08H437.223C437.863 40.08 438.375 40.24 438.759 40.56C439.143 40.88 439.399 41.264 439.527 41.712L454.119 76.656L469.095 41.712C469.287 41.264 469.543 40.88 469.863 40.56C470.247 40.24 470.791 40.08 471.495 40.08H476.007C476.583 40.08 477.063 40.272 477.447 40.656C477.831 41.04 478.023 41.488 478.023 42C478.023 42.32 477.863 42.896 477.543 43.728L450.279 106.608C450.087 107.056 449.799 107.44 449.415 107.76C449.095 108.08 448.583 108.24 447.879 108.24H443.367ZM513.882 90C513.178 90 512.634 89.808 512.25 89.424C511.866 88.976 511.674 88.432 511.674 87.792V25.008C511.674 24.368 511.866 23.856 512.25 23.472C512.634 23.024 513.178 22.8 513.882 22.8H518.97C519.61 22.8 520.122 23.024 520.506 23.472C520.89 23.856 521.082 24.368 521.082 25.008V81.648H553.05C553.754 81.648 554.298 81.872 554.682 82.32C555.066 82.704 555.258 83.248 555.258 83.952V87.792C555.258 88.432 555.066 88.976 554.682 89.424C554.298 89.808 553.754 90 553.05 90H513.882ZM567.688 90C567.048 90 566.504 89.808 566.056 89.424C565.672 88.976 565.48 88.432 565.48 87.792V42.288C565.48 41.648 565.672 41.136 566.056 40.752C566.504 40.304 567.048 40.08 567.688 40.08H572.296C572.936 40.08 573.448 40.304 573.832 40.752C574.216 41.136 574.408 41.648 574.408 42.288V87.792C574.408 88.432 574.216 88.976 573.832 89.424C573.448 89.808 572.936 90 572.296 90H567.688ZM566.92 30.768C566.28 30.768 565.736 30.576 565.288 30.192C564.904 29.744 564.712 29.2 564.712 28.56V23.376C564.712 22.736 564.904 22.224 565.288 21.84C565.736 21.392 566.28 21.168 566.92 21.168H572.968C573.608 21.168 574.12 21.392 574.504 21.84C574.952 22.224 575.176 22.736 575.176 23.376V28.56C575.176 29.2 574.952 29.744 574.504 30.192C574.12 30.576 573.608 30.768 572.968 30.768H566.92ZM591.898 90C591.258 90 590.714 89.808 590.266 89.424C589.882 88.976 589.69 88.432 589.69 87.792V42.288C589.69 41.648 589.882 41.136 590.266 40.752C590.714 40.304 591.258 40.08 591.898 40.08H596.41C597.05 40.08 597.562 40.304 597.946 40.752C598.394 41.136 598.618 41.648 598.618 42.288V46.512C600.282 44.336 602.362 42.576 604.858 41.232C607.418 39.824 610.682 39.12 614.65 39.12C618.81 39.12 622.33 40.048 625.21 41.904C628.154 43.696 630.362 46.224 631.834 49.488C633.306 52.688 634.042 56.432 634.042 60.72V87.792C634.042 88.432 633.85 88.976 633.466 89.424C633.082 89.808 632.57 90 631.93 90H627.13C626.49 90 625.946 89.808 625.498 89.424C625.114 88.976 624.922 88.432 624.922 87.792V61.2C624.922 56.72 623.834 53.232 621.658 50.736C619.482 48.176 616.282 46.896 612.058 46.896C608.09 46.896 604.89 48.176 602.458 50.736C600.09 53.232 598.906 56.72 598.906 61.2V87.792C598.906 88.432 598.682 88.976 598.234 89.424C597.85 89.808 597.338 90 596.698 90H591.898ZM668.74 90.96C662.148 90.96 656.9 88.944 652.996 84.912C649.092 80.816 646.948 75.248 646.564 68.208C646.5 67.376 646.468 66.32 646.468 65.04C646.468 63.696 646.5 62.608 646.564 61.776C646.82 57.232 647.876 53.264 649.732 49.872C651.588 46.416 654.116 43.76 657.316 41.904C660.58 40.048 664.388 39.12 668.74 39.12C673.604 39.12 677.668 40.144 680.932 42.192C684.26 44.24 686.788 47.152 688.516 50.928C690.244 54.704 691.108 59.12 691.108 64.176V65.808C691.108 66.512 690.884 67.056 690.436 67.44C690.052 67.824 689.54 68.016 688.9 68.016H655.684C655.684 68.08 655.684 68.208 655.684 68.4C655.684 68.592 655.684 68.752 655.684 68.88C655.812 71.504 656.388 73.968 657.412 76.272C658.436 78.512 659.908 80.336 661.828 81.744C663.748 83.152 666.052 83.856 668.74 83.856C671.044 83.856 672.964 83.504 674.5 82.8C676.036 82.096 677.284 81.328 678.244 80.496C679.204 79.6 679.844 78.928 680.164 78.48C680.74 77.648 681.188 77.168 681.508 77.04C681.828 76.848 682.34 76.752 683.044 76.752H687.652C688.292 76.752 688.804 76.944 689.188 77.328C689.636 77.648 689.828 78.128 689.764 78.768C689.7 79.728 689.188 80.912 688.228 82.32C687.268 83.664 685.892 85.008 684.1 86.352C682.308 87.696 680.132 88.816 677.572 89.712C675.012 90.544 672.068 90.96 668.74 90.96ZM655.684 61.392H681.988V61.104C681.988 58.224 681.444 55.664 680.356 53.424C679.332 51.184 677.828 49.424 675.844 48.144C673.86 46.8 671.492 46.128 668.74 46.128C665.988 46.128 663.62 46.8 661.636 48.144C659.716 49.424 658.244 51.184 657.22 53.424C656.196 55.664 655.684 58.224 655.684 61.104V61.392Z" fill="#29478F"/>
<path d="M748 90C748 92.2091 749.791 94 752 94C754.209 94 756 92.2091 756 90H752H748ZM754.828 13.1716C753.266 11.6095 750.734 11.6095 749.172 13.1716L723.716 38.6274C722.154 40.1895 722.154 42.7222 723.716 44.2843C725.278 45.8464 727.81 45.8464 729.373 44.2843L752 21.6569L774.627 44.2843C776.19 45.8464 778.722 45.8464 780.284 44.2843C781.846 42.7222 781.846 40.1895 780.284 38.6274L754.828 13.1716ZM752 90H756V16H752H748V90H752Z" fill="#29478F"/>
</svg>
